<svg width="500" height="500" version="1.1" xmlns="http://www.w3.org/2000/svg" desc="Created with imagetracer.js version 1.2.6" ><path fill="rgb(0,0,0)" stroke="rgb(0,0,0)" stroke-width="1" opacity="0.11372549019607843" d="M 0 0 L 29 0.5 Q 12.9 2.9 6 14.5 Q 1.3 19.8 0.5 29 L 0 0 Z " /><path fill="rgb(0,0,0)" stroke="rgb(0,0,0)" stroke-width="1" opacity="0.11372549019607843" d="M 471.5 0 L 500 0 L 500 28.5 L 499 28.5 Q 497 12.5 485.5 6 Q 480.8 1.2 471.5 1 L 471.5 0 Z " /><path fill="rgb(0,0,0)" stroke="rgb(0,0,0)" stroke-width="1" opacity="0.11372549019607843" d="M 0.5 471 Q 3 487 14.5 494 L 24.5 499 L 29 499.5 L 0 500 L 0.5 471 Z " /><path fill="rgb(0,0,0)" stroke="rgb(0,0,0)" stroke-width="1" opacity="0.11372549019607843" d="M 499.5 471 L 500 500 L 471 499.5 Q 487 497 494 485.5 Q 498.7 480.2 499.5 471 Z " /><path fill="rgb(27,115,186)" stroke="rgb(27,115,186)" stroke-width="1" opacity="1" d="M 242.5 53 L 258 53.5 L 242.5 54 L 242.5 53 Z " /><path fill="rgb(27,115,186)" stroke="rgb(27,115,186)" stroke-width="1" opacity="1" d="M 235.5 54 L 238 54.5 L 235.5 55 L 235.5 54 Z " /><path fill="rgb(27,115,186)" stroke="rgb(27,115,186)" stroke-width="1" opacity="1" d="M 262.5 54 L 265 54.5 L 262.5 55 L 262.5 54 Z " /><path fill="rgb(27,115,186)" stroke="rgb(27,115,186)" stroke-width="1" opacity="1" d="M 230.5 55 L 233 55.5 L 230.5 56 L 230.5 55 Z " /><path fill="rgb(27,115,186)" stroke="rgb(27,115,186)" stroke-width="1" opacity="1" d="M 267.5 55 L 270 55.5 L 267.5 56 L 267.5 55 Z " /><path fill="rgb(27,115,186)" stroke="rgb(27,115,186)" stroke-width="1" opacity="1" d="M 226.5 56 L 229 56.5 L 219.5 59 L 219.5 58 L 226.5 56 Z " /><path fill="rgb(27,115,186)" stroke="rgb(27,115,186)" stroke-width="1" opacity="1" d="M 271.5 56 L 283 59.5 L 281.5 60 L 271.5 57 L 271.5 56 Z " /><path fill="rgb(27,115,186)" stroke="rgb(27,115,186)" stroke-width="1" opacity="1" d="M 214.5 60 L 216 60.5 L 208.5 64 L 208.5 63 L 214.5 60 Z " /><path fill="rgb(27,115,186)" stroke="rgb(27,115,186)" stroke-width="1" opacity="1" d="M 284.5 60 L 292 63.5 L 290 64.5 Q 290.8 62.3 288.5 63 L 284.5 61 L 284.5 60 Z " /><path fill="rgb(27,115,186)" stroke="rgb(27,115,186)" stroke-width="1" opacity="1" d="M 206.5 64 L 207.5 66 L 205.5 66 L 197.5 71 L 199.5 68 L 206.5 64 Z " /><path fill="rgb(27,115,186)" stroke="rgb(27,115,186)" stroke-width="1" opacity="1" d="M 293.5 64 L 300 68.5 L 298.5 68 Q 293.9 66.8 293.5 64 Z " /><path fill="rgb(27,115,186)" stroke="rgb(27,115,186)" stroke-width="1" opacity="1" d="M 301.5 69 L 319 84.5 L 323 89.5 L 318 85.5 L 313.5 80 L 312 80.5 Q 314.3 79.3 311.5 78 Q 304.4 74.3 301.5 69 Z " /><path fill="rgb(27,115,186)" stroke="rgb(27,115,186)" stroke-width="1" opacity="1" d="M 195.5 71 L 192.5 75 L 186 80.5 L 186.5 82 L 185.5 81 L 180 85.5 L 195.5 71 Z " /><path fill="rgb(27,115,186)" stroke="rgb(27,115,186)" stroke-width="1" opacity="1" d="M 179.5 87 L 177.5 90 L 179.5 87 Z " /><path fill="rgb(27,115,186)" stroke="rgb(27,115,186)" stroke-width="1" opacity="1" d="M 176.5 91 L 175 93.5 L 171 100.5 L 171.5 102 Q 168.8 100.8 171 99.5 L 176.5 91 Z " /><path fill="rgb(27,115,186)" stroke="rgb(27,115,186)" stroke-width="1" opacity="1" d="M 323.5 91 L 328 97.5 L 326 96.5 L 323.5 91 Z " /><path fill="rgb(27,115,186)" stroke="rgb(27,115,186)" stroke-width="1" opacity="1" d="M 328.5 99 L 333 107.5 L 332 107.5 L 330 102 L 328 101.5 L 328.5 99 Z " /><path fill="rgb(27,115,186)" stroke="rgb(27,115,186)" stroke-width="1" opacity="1" d="M 168.5 104 L 169 105.5 L 164.5 115 L 164 113.5 L 168.5 104 Z " /><path fill="rgb(27,115,186)" stroke="rgb(27,115,186)" stroke-width="1" opacity="1" d="M 334.5 111 L 338 122.5 L 337 122.5 L 334.5 111 Z " /><path fill="rgb(27,115,186)" stroke="rgb(27,115,186)" stroke-width="1" opacity="1" d="M 163.5 116 L 164 118.5 L 161.5 127 L 161 123.5 L 163.5 116 Z " /><path fill="rgb(27,115,186)" stroke="rgb(27,115,186)" stroke-width="1" opacity="1" d="M 338.5 124 L 339 126.5 L 338 126.5 L 338.5 124 Z " /><path fill="rgb(27,115,186)" stroke="rgb(27,115,186)" stroke-width="1" opacity="1" d="M 192.5 136 L 193.5 138 L 192.5 136 Z " /><path fill="rgb(27,115,186)" stroke="rgb(27,115,186)" stroke-width="1" opacity="1" d="M 197.5 139 L 202 142.5 L 199.5 141 L 197.5 139 Z " /><path fill="rgb(27,115,186)" stroke="rgb(27,115,186)" stroke-width="1" opacity="1" d="M 204.5 144 L 205.5 146 L 204.5 144 Z " /><path fill="rgb(27,115,186)" stroke="rgb(27,115,186)" stroke-width="1" opacity="1" d="M 208.5 147 L 217.5 157 L 208.5 147 Z " /><path fill="rgb(27,115,186)" stroke="rgb(27,115,186)" stroke-width="1" opacity="1" d="M 220.5 160 L 222.5 163 L 220.5 160 Z " /><path fill="rgb(27,115,186)" stroke="rgb(27,115,186)" stroke-width="1" opacity="1" d="M 223.5 164 L 225.5 167 L 223.5 164 Z " /><path fill="rgb(27,115,186)" stroke="rgb(27,115,186)" stroke-width="1" opacity="1" d="M 240.5 209 L 241 224.5 L 240 224.5 L 240.5 209 Z " /><path fill="rgb(27,115,186)" stroke="rgb(27,115,186)" stroke-width="1" opacity="1" d="M 239.5 229 L 240 231.5 L 239 231.5 L 239.5 229 Z " /><path fill="rgb(27,115,186)" stroke="rgb(27,115,186)" stroke-width="1" opacity="1" d="M 243.5 234 L 257 234.5 L 243.5 235 L 243.5 234 Z " /><path fill="rgb(27,115,186)" stroke="rgb(27,115,186)" stroke-width="1" opacity="1" d="M 307.5 244 L 317 244.5 L 307.5 245 L 307.5 244 Z " /><path fill="rgb(27,115,186)" stroke="rgb(27,115,186)" stroke-width="1" opacity="1" d="M 298.5 245 L 302 245.5 L 298.5 246 L 298.5 245 Z " /><path fill="rgb(27,115,186)" stroke="rgb(27,115,186)" stroke-width="1" opacity="1" d="M 322.5 245 L 327 245.5 L 322.5 246 L 322.5 245 Z " /><path fill="rgb(27,115,186)" stroke="rgb(27,115,186)" stroke-width="1" opacity="1" d="M 292.5 246 L 295 246.5 L 292.5 247 L 292.5 246 Z " /><path fill="rgb(27,115,186)" stroke="rgb(27,115,186)" stroke-width="1" opacity="1" d="M 329.5 246 L 333 246.5 L 329.5 247 L 329.5 246 Z " /><path fill="rgb(27,115,186)" stroke="rgb(27,115,186)" stroke-width="1" opacity="1" d="M 288.5 247 L 291 247.5 L 288.5 248 L 288.5 247 Z " /><path fill="rgb(27,115,186)" stroke="rgb(27,115,186)" stroke-width="1" opacity="1" d="M 274.5 252 L 276 252.5 L 271.5 255 L 272.5 253 L 274.5 252 Z " /><path fill="rgb(27,115,186)" stroke="rgb(27,115,186)" stroke-width="1" opacity="1" d="M 355.5 255 L 359 257.5 L 357.5 257 L 355.5 255 Z " /><path fill="rgb(27,115,186)" stroke="rgb(27,115,186)" stroke-width="1" opacity="1" d="M 363.5 260 L 364.5 262 L 363.5 260 Z " /><path fill="rgb(27,115,186)" stroke="rgb(27,115,186)" stroke-width="1" opacity="1" d="M 366.5 262 L 368.5 265 L 366.5 262 Z " /><path fill="rgb(27,115,186)" stroke="rgb(27,115,186)" stroke-width="1" opacity="1" d="M 371.5 266 L 381.5 277 L 371.5 266 Z " /><path fill="rgb(27,115,186)" stroke="rgb(27,115,186)" stroke-width="1" opacity="1" d="M 383.5 279 L 385.5 282 L 383.5 279 Z " /><path fill="rgb(27,115,186)" stroke="rgb(27,115,186)" stroke-width="1" opacity="1" d="M 386.5 283 L 387.5 285 L 386.5 283 Z " /><path fill="rgb(27,115,186)" stroke="rgb(27,115,186)" stroke-width="1" opacity="1" d="M 388.5 286 L 389.5 288 L 388.5 286 Z " /><path fill="rgb(27,115,186)" stroke="rgb(27,115,186)" stroke-width="1" opacity="1" d="M 392.5 293 L 393.5 295 L 392.5 293 Z " /><path fill="rgb(25,120,195)" stroke="rgb(25,120,195)" stroke-width="1" opacity="1" d="M 238.5 54 L 261.5 54 L 277.5 58 L 290 63 L 290.5 65 L 292.5 64 Q 306.9 72.6 318 84.5 L 329 100.5 L 328.5 102 Q 330.8 101.3 330 103.5 L 334 110.5 L 338 127 Q 300.1 133.8 280 159.5 Q 268.8 172.8 263 191.5 L 260 207.5 L 260 227.5 L 261 234 L 239.5 234 L 239 232.5 L 241 224.5 L 241 209.5 L 237 189.5 L 230 173.5 Q 221.5 158 208.5 147 Q 191.1 130.7 162 127 L 164 115.5 L 170 101.5 Q 178.3 85.9 191.5 75 Q 203 65 218.5 59 L 238.5 54 Z " /><path fill="rgb(0,0,0)" stroke="rgb(0,0,0)" stroke-width="1" opacity="1" d="M 29.5 0 L 470.5 0 Q 486.6 2.9 494 14.5 L 498 21.5 L 500 29.5 L 500 470.5 Q 497.1 486.6 485.5 494 Q 479.5 498.5 470.5 500 L 29.5 500 Q 13.4 497.1 6 485.5 L 2 478.5 L 0 470.5 L 0 29.5 Q 3.2 12.7 15.5 5 L 29.5 0 Z M 243 53 L 242 54 L 230 55 L 217 59 Q 202 65 192 74 Q 168 93 161 127 L 156 126 L 135 127 L 117 132 Q 100 139 88 150 Q 74 162 66 180 L 61 194 L 58 211 L 59 232 L 63 248 Q 69 264 80 277 Q 90 289 105 296 L 99 314 L 98 325 L 97 326 L 97 346 L 98 347 L 99 358 Q 105 380 119 396 Q 138 420 176 426 L 201 426 L 214 423 Q 235 416 250 402 Q 268 420 299 426 L 326 426 L 342 422 Q 359 415 373 404 Q 383 394 391 382 L 400 361 L 403 345 L 402 320 L 395 296 L 412 285 Q 434 266 441 231 L 441 204 L 437 188 L 429 171 L 415 152 L 393 136 L 378 130 L 358 126 L 345 126 L 339 127 L 334 109 Q 328 95 319 85 Q 306 69 286 60 L 265 54 L 243 53 Z " /><path fill="rgb(0,0,0)" stroke="rgb(0,0,0)" stroke-width="1" opacity="1" d="M 239.5 234 Q 245.8 236.7 256.5 235 L 260.5 234 L 262 235.5 L 263 242.5 L 268 255.5 L 249.5 269 Q 242.3 261 232 257 L 232 253.5 L 239.5 234 Z " /><path fill="rgb(203,154,5)" stroke="rgb(203,154,5)" stroke-width="1" opacity="1" d="M 144.5 126 L 154.5 126 L 161 127.5 L 159 135.5 L 159 152.5 L 162 168.5 L 172 191.5 Q 180.1 204.4 191.5 214 Q 209.3 230 238 234 L 234 250.5 L 230.5 256 L 221.5 251 L 204.5 246 L 178.5 245 L 162.5 248 L 151.5 252 Q 133.6 260.1 121 273.5 Q 111.5 283.5 105.5 297 Q 90.6 288.9 80 276.5 Q 70 265 64 249.5 L 59 230.5 L 58 211.5 L 62 190.5 L 67 177.5 Q 74.2 162.7 85.5 152 Q 98.4 139.5 116.5 132 L 130.5 128 L 143.5 127 L 144.5 126 Z " /><path fill="rgb(211,180,31)" stroke="rgb(211,180,31)" stroke-width="1" opacity="1" d="M 161.5 127 L 183.5 133 L 195.5 139 L 214 153 L 227 170.5 L 234 184.5 L 239 203.5 L 240 221.5 L 238 234 Q 200 227.8 180 202.5 Q 167.9 188.6 162 168.5 L 159 152.5 L 159 135.5 Q 161.5 134 160 128.5 L 161.5 127 Z " /><path fill="rgb(211,180,31)" stroke="rgb(211,180,31)" stroke-width="1" opacity="1" d="M 178.5 245 L 204.5 246 L 221.5 251 L 231 256.5 Q 222.1 275.6 206.5 288 Q 194.3 298.3 177.5 304 L 157.5 308 L 140.5 308 L 124.5 305 Q 113.8 302.2 106 296.5 Q 112.8 280.8 124.5 270 Q 136 259 151.5 252 L 162.5 248 L 178.5 245 Z " /><path fill="rgb(5,173,207)" stroke="rgb(5,173,207)" stroke-width="1" opacity="1" d="M 336.5 127 Q 339.8 125.9 339 128.5 L 341 137.5 L 341 150.5 L 338 167.5 L 332 183.5 Q 323.6 200.1 310.5 212 Q 292 229.8 261 234 L 260 227.5 L 260 207.5 L 263 191.5 L 270 174.5 Q 278.8 158.3 292.5 147 Q 309.5 132 336.5 127 Z " /><path fill="rgb(0,149,169)" stroke="rgb(0,149,169)" stroke-width="1" opacity="1" d="M 345.5 126 L 364.5 127 L 385.5 133 Q 407.2 142.3 421 159.5 Q 432.3 172.7 438 191.5 L 441 204.5 L 441 229.5 Q 434.4 264.4 412.5 284 L 399.5 294 L 394 296 Q 386.3 278 371.5 266 Q 361.1 256.9 347.5 251 L 332.5 246 L 307.5 244 L 306.5 245 L 298.5 245 L 288.5 247 L 268.5 255 L 265 248.5 L 261 234.5 Q 298.2 228.2 318 204.5 Q 328.6 192.6 335 176.5 L 340 158.5 L 341 137.5 L 339 127 L 345.5 126 Z " /><path fill="rgb(85,144,89)" stroke="rgb(85,144,89)" stroke-width="1" opacity="1" d="M 162.5 127 L 165 127.5 L 162.5 128 L 162.5 127 Z " /><path fill="rgb(85,144,89)" stroke="rgb(85,144,89)" stroke-width="1" opacity="1" d="M 171.5 129 L 174 129.5 L 171.5 130 L 171.5 129 Z " /><path fill="rgb(85,144,89)" stroke="rgb(85,144,89)" stroke-width="1" opacity="1" d="M 188.5 135 L 193 137.5 L 191.5 137 Q 187.7 136.7 188.5 135 Z " /><path fill="rgb(85,144,89)" stroke="rgb(85,144,89)" stroke-width="1" opacity="1" d="M 196.5 139 L 197.5 141 L 196.5 139 Z " /><path fill="rgb(85,144,89)" stroke="rgb(85,144,89)" stroke-width="1" opacity="1" d="M 199.5 141 L 200.5 143 L 199.5 141 Z " /><path fill="rgb(85,144,89)" stroke="rgb(85,144,89)" stroke-width="1" opacity="1" d="M 202.5 143 L 204.5 146 L 202.5 143 Z " /><path fill="rgb(85,144,89)" stroke="rgb(85,144,89)" stroke-width="1" opacity="1" d="M 206.5 146 L 212.5 153 L 206.5 146 Z " /><path fill="rgb(85,144,89)" stroke="rgb(85,144,89)" stroke-width="1" opacity="1" d="M 214.5 154 L 219.5 160 L 214.5 154 Z " /><path fill="rgb(85,144,89)" stroke="rgb(85,144,89)" stroke-width="1" opacity="1" d="M 220.5 161 L 222.5 164 L 220.5 161 Z " /><path fill="rgb(85,144,89)" stroke="rgb(85,144,89)" stroke-width="1" opacity="1" d="M 223.5 165 L 227 169.5 L 225 168.5 L 223.5 165 Z " /><path fill="rgb(85,144,89)" stroke="rgb(85,144,89)" stroke-width="1" opacity="1" d="M 227.5 171 L 233 181.5 L 232 181.5 L 227.5 171 Z " /><path fill="rgb(85,144,89)" stroke="rgb(85,144,89)" stroke-width="1" opacity="1" d="M 236.5 191 L 237 193.5 L 236 193.5 L 236.5 191 Z " /><path fill="rgb(85,144,89)" stroke="rgb(85,144,89)" stroke-width="1" opacity="1" d="M 237.5 195 L 238 197.5 L 237 197.5 L 237.5 195 Z " /><path fill="rgb(85,144,89)" stroke="rgb(85,144,89)" stroke-width="1" opacity="1" d="M 238.5 199 L 239 202.5 L 238 202.5 L 238.5 199 Z " /><path fill="rgb(85,144,89)" stroke="rgb(85,144,89)" stroke-width="1" opacity="1" d="M 239.5 205 L 240 211.5 L 239 211.5 L 239.5 205 Z " /><path fill="rgb(85,144,89)" stroke="rgb(85,144,89)" stroke-width="1" opacity="1" d="M 239.5 222 L 240 228.5 L 239 228.5 L 239.5 222 Z " /><path fill="rgb(85,144,89)" stroke="rgb(85,144,89)" stroke-width="1" opacity="1" d="M 238.5 231 L 239 233.5 L 238 233.5 L 238.5 231 Z " /><path fill="rgb(85,144,89)" stroke="rgb(85,144,89)" stroke-width="1" opacity="1" d="M 226.5 265 L 225.5 267 L 226.5 265 Z " /><path fill="rgb(85,144,89)" stroke="rgb(85,144,89)" stroke-width="1" opacity="1" d="M 224.5 268 L 223.5 270 L 224.5 268 Z " /><path fill="rgb(85,144,89)" stroke="rgb(85,144,89)" stroke-width="1" opacity="1" d="M 249.5 270 L 257 276.5 Q 269 290 275 309.5 L 278 323.5 L 278 348.5 Q 271.9 382.4 250.5 401 L 241 392.5 Q 229.8 378.7 224 359.5 L 222 349.5 L 222 342.5 L 221 341.5 L 221 329.5 L 222 328.5 L 223 316.5 L 227 302.5 Q 234.8 282.8 249.5 270 Z " /><path fill="rgb(85,144,89)" stroke="rgb(85,144,89)" stroke-width="1" opacity="1" d="M 221.5 272 L 220.5 274 L 221.5 272 Z " /><path fill="rgb(85,144,89)" stroke="rgb(85,144,89)" stroke-width="1" opacity="1" d="M 217.5 277 L 209.5 286 L 217.5 277 Z " /><path fill="rgb(85,144,89)" stroke="rgb(85,144,89)" stroke-width="1" opacity="1" d="M 205.5 288 L 204.5 290 L 205.5 288 Z " /><path fill="rgb(85,144,89)" stroke="rgb(85,144,89)" stroke-width="1" opacity="1" d="M 201.5 291 L 200.5 293 L 201.5 291 Z " /><path fill="rgb(85,144,89)" stroke="rgb(85,144,89)" stroke-width="1" opacity="1" d="M 198.5 293 L 197.5 295 L 198.5 293 Z " /><path fill="rgb(85,144,89)" stroke="rgb(85,144,89)" stroke-width="1" opacity="1" d="M 165.5 306 L 168 306.5 L 165.5 307 L 165.5 306 Z " /><path fill="rgb(85,144,89)" stroke="rgb(85,144,89)" stroke-width="1" opacity="1" d="M 136.5 307 L 140 307.5 L 136.5 308 L 136.5 307 Z " /><path fill="rgb(85,144,89)" stroke="rgb(85,144,89)" stroke-width="1" opacity="1" d="M 158.5 307 L 162 307.5 L 158.5 308 L 158.5 307 Z " /><path fill="rgb(124,60,173)" stroke="rgb(124,60,173)" stroke-width="1" opacity="1" d="M 302.5 245 L 328.5 246 L 348.5 252 Q 369.3 261.7 383 278.5 L 394 296.5 Q 375.6 309.6 342.5 308 L 322.5 304 L 308.5 298 Q 291.1 288.5 279 273.5 L 269 256.5 L 278.5 251 L 302.5 245 Z " /><path fill="rgb(60,139,63)" stroke="rgb(60,139,63)" stroke-width="1" opacity="1" d="M 87.5 150 L 86.5 152 L 87.5 150 Z " /><path fill="rgb(60,139,63)" stroke="rgb(60,139,63)" stroke-width="1" opacity="1" d="M 231.5 255 L 232 257 Q 242.6 261.2 250 269.5 Q 235 282.5 227 302.5 L 222 321.5 L 221 341.5 L 222 342.5 L 222 349.5 L 224 359.5 L 227 368.5 Q 235 388.5 250 401.5 Q 235.8 416.3 213.5 423 L 200.5 426 L 175.5 426 Q 138.5 419.5 119 395.5 Q 105.2 380.3 99 357.5 L 98 346.5 L 97 345.5 L 97 325.5 L 98 324.5 L 99 313.5 L 105.5 297 L 122.5 305 L 136.5 308 L 161.5 308 L 175.5 305 L 190.5 299 Q 206.4 290.4 218 277.5 Q 227.1 268.6 231.5 255 Z " /><path fill="rgb(60,139,63)" stroke="rgb(60,139,63)" stroke-width="1" opacity="1" d="M 418.5 277 L 417.5 279 L 418.5 277 Z " /><path fill="rgb(60,139,63)" stroke="rgb(60,139,63)" stroke-width="1" opacity="1" d="M 374.5 401 L 372.5 404 L 374.5 401 Z " /><path fill="rgb(124,30,140)" stroke="rgb(124,30,140)" stroke-width="1" opacity="1" d="M 268.5 256 Q 277.4 275.6 293.5 288 Q 305.8 298.3 322.5 304 L 342.5 308 L 359.5 308 L 375.5 305 L 393.5 297 Q 404.6 314.4 403 344.5 L 399 363.5 L 395 373.5 Q 387.5 389.5 375.5 401 Q 363.4 412.9 346.5 420 L 324.5 426 L 300.5 426 L 277.5 420 Q 261.1 413.4 250 401.5 Q 265.1 388.1 273 367.5 L 278 348.5 L 278 323.5 Q 272 288.5 250 269.5 Q 257.8 261.3 268.5 256 Z " /></svg>