<?xml version="1.0" encoding="UTF-8"?>
<svg version="1.1" xmlns="http://www.w3.org/2000/svg" width="1117" height="311">
<path d="M0 0 C368.61 0 737.22 0 1117 0 C1117 102.63 1117 205.26 1117 311 C748.39 311 379.78 311 0 311 C0 208.37 0 105.74 0 0 Z " fill="#FEFEFE" transform="translate(0,0)"/>
<path d="M0 0 C0.79057777 -0.00382555 1.58115553 -0.00765109 2.3956902 -0.01159257 C5.02389278 -0.02184605 7.65187375 -0.01794505 10.28009033 -0.01396179 C12.17310792 -0.01831258 14.06612374 -0.02349695 15.95913696 -0.02944946 C21.08742451 -0.04281316 26.21563823 -0.04342091 31.34393978 -0.04088616 C35.63289264 -0.03981438 39.9218307 -0.04470528 44.21078038 -0.04949158 C54.335132 -0.06057831 64.45944652 -0.06102928 74.58380127 -0.05497742 C85.00840142 -0.04894158 95.43286647 -0.06124068 105.85744357 -0.08254749 C114.82418129 -0.10019688 123.79087615 -0.10615947 132.75763059 -0.10290974 C138.10561628 -0.10110161 143.45350565 -0.1036858 148.80147552 -0.11762428 C153.8346872 -0.13025189 158.86768932 -0.12821202 163.90089798 -0.11521339 C165.74063057 -0.11285855 167.58037813 -0.11554283 169.42009354 -0.12383652 C187.23212591 -0.19829956 202.09956477 2.15259917 215.49981689 14.88179016 C227.57602819 27.62773934 229.49596407 41.29796477 229.38482666 58.08320618 C229.38997296 60.06710956 229.39725958 62.05100836 229.4065094 64.03489685 C229.42493967 69.39236606 229.41213822 74.74933418 229.3924191 80.1067822 C229.37596426 85.72970178 229.38485487 91.35259133 229.38993835 96.9755249 C229.39445131 106.41465709 229.37863801 115.8535906 229.35064697 125.29267883 C229.31858955 136.18663925 229.31861713 147.08024163 229.33586174 157.97422749 C229.35175534 168.47998427 229.34497561 178.9856105 229.32792473 189.49136162 C229.32107405 193.95083555 229.32206625 198.41020421 229.32946968 202.86967659 C229.33716163 208.12545546 229.32491153 213.38082949 229.29762077 218.63653946 C229.29076669 220.55892295 229.2906068 222.48134446 229.2978363 224.40372658 C229.33100811 234.37768199 229.2924423 243.11587583 224.75372314 252.26069641 C224.28450439 253.2442511 223.81528564 254.22780579 223.33184814 255.24116516 C216.34983458 266.84362887 206.94391479 274.62828874 193.95684814 278.71772766 C188.54802766 280.05075257 183.30669703 280.40927249 177.75468445 280.40786743 C176.9665211 280.41154412 176.17835775 280.41522081 175.36631066 280.41900891 C172.73429236 280.42999176 170.10231361 280.43388039 167.47027588 280.43769836 C165.5791766 280.44396715 163.68807854 280.45061432 161.79698181 280.45761108 C155.59376882 280.47860645 149.39055572 280.48901 143.18731689 280.49897766 C141.04732818 280.50302706 138.9073396 280.50714404 136.76735115 280.51132774 C126.71066318 280.53037034 116.65398249 280.54460271 106.59727997 280.55293971 C95.00995 280.56270562 83.42281139 280.58901228 71.83554882 280.62944061 C62.8654459 280.65965756 53.89539767 280.67441392 44.92524487 280.67772073 C39.57435386 280.68006501 34.2236675 280.68894445 28.87283134 280.7141819 C23.83386928 280.73756508 18.79524513 280.74165482 13.75624275 280.73142052 C11.9153086 280.73092752 10.07435723 280.73717775 8.23347473 280.75097656 C-9.15296904 280.87392238 -23.38149099 277.83186091 -36.49627686 265.63569641 C-41.45580334 260.45038301 -44.67090541 254.93580246 -47.24627686 248.26069641 C-47.62470277 247.35192529 -47.62470277 247.35192529 -48.01077366 246.42479515 C-51.20893515 237.5924569 -50.67518357 228.4900859 -50.65032959 219.23188782 C-50.65603893 217.30901697 -50.66300536 215.38614952 -50.67112732 213.46328735 C-50.68901216 208.26277721 -50.68789906 203.06243624 -50.68218493 197.86190462 C-50.67908611 193.51071194 -50.6851933 189.15955142 -50.69122368 184.80836332 C-50.70525215 174.53821516 -50.70372177 164.2681502 -50.69232178 153.9980011 C-50.68084396 143.42449045 -50.6949145 132.85123355 -50.72171825 122.27775633 C-50.74391396 113.17933518 -50.75050385 104.08099345 -50.74464184 94.98254716 C-50.74128012 89.55743669 -50.743635 84.13248882 -50.76089287 78.70740128 C-50.77642151 73.60351765 -50.77234095 68.5000083 -50.75358772 63.39613914 C-50.74991811 61.53060538 -50.75296245 59.66504351 -50.76347351 57.79953575 C-50.85146625 40.88175332 -47.62005267 27.40187797 -36.24627686 14.26069641 C-25.5055748 5.17761451 -14.17640555 -0.0740676 0 0 Z " fill="#010101" transform="translate(88.24627685546875,14.739303588867188)"/>
<path d="M0 0 C9.68227907 6.37416706 18.2555056 14.85902613 20.75 26.5 C20.8325 27.325 20.915 28.15 21 29 C21.59425781 28.96519531 22.18851563 28.93039063 22.80078125 28.89453125 C35.36808843 28.48409042 47.44959165 32.60654883 56.8125 41.1875 C65.93705887 51.05781609 68.69147482 62.38902719 68.375 75.375 C67.78369854 85.66364537 63.15664381 94.69141047 56 102 C50.17647059 107 50.17647059 107 47 107 C47.31831787 107.80920898 47.31831787 107.80920898 47.64306641 108.63476562 C49.75613254 114.39339695 50.4647015 119.39033086 50.375 125.5 C50.38660156 126.29019531 50.39820313 127.08039063 50.41015625 127.89453125 C50.35560764 139.00426432 45.88320824 147.62847094 38.5 155.75 C27.90559812 165.28496169 18.50586604 168.72454635 4.3125 168.38671875 C-3.08898072 167.93473238 -9.46943937 164.86250351 -15.5 160.6875 C-18.04986043 158.6270181 -18.04986043 158.6270181 -22 159 C-24.36756816 160.19752145 -24.36756816 160.19752145 -26.75 161.8125 C-33.84491693 166.44708283 -40.28654982 168.5723685 -48.75 168.5 C-49.5349585 168.49427979 -50.31991699 168.48855957 -51.12866211 168.48266602 C-63.18864988 168.11571423 -72.74780608 162.54991744 -80.96875 153.9375 C-85.56195223 148.48793803 -88.00734202 142.80289148 -90 136 C-90.19335938 135.35804688 -90.38671875 134.71609375 -90.5859375 134.0546875 C-92.37649408 125.16947277 -90.84715295 116.45672215 -88 108 C-88.50789063 107.64808594 -89.01578125 107.29617187 -89.5390625 106.93359375 C-97.22022455 101.42444569 -102.21041464 95.66190939 -106 87 C-106.78697266 85.38544922 -106.78697266 85.38544922 -107.58984375 83.73828125 C-110.72184615 75.43543831 -110.03596858 64.56295693 -107.03515625 56.23046875 C-100.93716005 43.09101278 -91.16688097 35.427209 -78 30 C-74.19045537 28.96530887 -70.62593401 28.89422051 -66.6875 28.9375 C-65.08455078 28.95103516 -65.08455078 28.95103516 -63.44921875 28.96484375 C-62.64097656 28.97644531 -61.83273438 28.98804688 -61 29 C-60.979375 28.0925 -60.95875 27.185 -60.9375 26.25 C-59.60448749 17.24760044 -53.24541342 9.30873021 -46.40625 3.6875 C-33.78161348 -5.1661412 -13.68988185 -8.65833945 0 0 Z " fill="#3C8B3F" transform="translate(198,69)"/>
<path d="M0 0 C7.33567241 6.40204138 12.41830293 13.12955217 13.4921875 23.05078125 C13.78801955 33.54049271 11.92964012 41.77735898 5.10546875 49.89453125 C0.09579209 54.96420404 -4.75796474 57.43165014 -11.8515625 57.875 C-11.8515625 58.535 -11.8515625 59.195 -11.8515625 59.875 C-10.8615625 59.9575 -9.8715625 60.04 -8.8515625 60.125 C-1.42973282 61.21732574 5.15163162 65.36330077 10.1484375 70.875 C17.07181782 80.79055388 19.08459545 88.87515721 18.1484375 100.875 C16.15788716 111.3888464 9.44111365 118.98558013 0.9609375 125.1875 C-13.50562442 134.16850493 -32.42734855 136.44513498 -49.0234375 133.19140625 C-60.33080772 130.16354378 -72.63056756 124.61326035 -79.3828125 114.60546875 C-80.64540495 112.39226163 -81.79489672 110.19311175 -82.8515625 107.875 C-83.21507812 107.13636719 -83.57859375 106.39773437 -83.953125 105.63671875 C-86.71629211 97.14298332 -86.11986766 86.26788843 -82.3515625 78.25 C-77.18590259 69.52389693 -70.51066108 63.29182399 -60.8515625 59.875 C-59.5315625 59.875 -58.2115625 59.875 -56.8515625 59.875 C-56.8515625 59.215 -56.8515625 58.555 -56.8515625 57.875 C-57.58503906 57.76285156 -58.31851563 57.65070313 -59.07421875 57.53515625 C-66.16132426 55.85059812 -71.38719214 50.84786094 -75.5625 45.09765625 C-79.05506529 39.07562701 -80.38758376 34.40036682 -80.2890625 27.5 C-80.27661499 26.37573608 -80.27661499 26.37573608 -80.26391602 25.22875977 C-79.95870156 15.22619778 -75.96633375 8.77063045 -68.8515625 1.875 C-50.66726269 -14.77757693 -19.2491725 -14.83657149 0 0 Z " fill="#030303" transform="translate(1058.8515625,93.125)"/>
<path d="M0 0 C7.41980967 6.36141186 13.35038443 13.81181301 17.06640625 22.87890625 C17.51693359 23.95591797 17.51693359 23.95591797 17.9765625 25.0546875 C23.2167304 40.33647948 21.05553286 58.32354309 14.78125 72.85546875 C9.79526275 82.93855161 2.9082072 89.31678436 -6.99609375 94.37890625 C-7.65657715 94.71752686 -8.31706055 95.05614746 -8.99755859 95.4050293 C-21.5252526 101.39579305 -38.0572946 100.14578799 -50.93359375 95.87890625 C-54.94962367 93.93017799 -58.42183076 91.62578605 -61.93359375 88.87890625 C-62.65160156 88.3271875 -63.36960937 87.77546875 -64.109375 87.20703125 C-72.31349427 80.00652269 -78.40624557 67.72269168 -79.7578125 56.91015625 C-80.82663953 38.47882798 -79.7212228 22.13884299 -67.67578125 7.05078125 C-50.87030664 -10.99754196 -20.19211293 -14.5996236 0 0 Z " fill="#030303" transform="translate(627.93359375,128.12109375)"/>
<path d="M0 0 C9.68227907 6.37416706 18.2555056 14.85902613 20.75 26.5 C20.8325 27.325 20.915 28.15 21 29 C21.59425781 28.96519531 22.18851562 28.93039063 22.80078125 28.89453125 C35.36808843 28.48409042 47.44959165 32.60654883 56.8125 41.1875 C65.93705887 51.05781609 68.69147482 62.38902719 68.375 75.375 C67.79055025 85.54442569 63.2479333 94.88072824 56 102 C53.11411432 104.21849585 50.1500286 106.17855489 47 108 C46.484375 107.34 45.96875 106.68 45.4375 106 C44.633125 105.01 43.82875 104.02 43 103 C42.50242187 102.37222656 42.00484375 101.74445313 41.4921875 101.09765625 C35.07999972 93.32847059 27.13780648 87.8259505 17.3125 85.3125 C8.18780762 84.45167996 0.6550713 84.97386094 -8 88 C-9.32949938 88.34831062 -10.66180796 88.68674141 -12 89 C-15 82.375 -15 82.375 -15 79 C-18.3 79 -21.6 79 -25 79 C-25.02578125 77.97261719 -25.0515625 76.94523437 -25.078125 75.88671875 C-25.55646079 62.66769316 -28.08752437 50.53924565 -38.0703125 41.02734375 C-44.96980216 35.36591582 -52.41782428 32.1911938 -61 30 C-60.83079379 21.20127691 -56.67731805 14.12593726 -50.88671875 7.62890625 C-38.16021547 -4.32903378 -15.66616363 -9.90826394 0 0 Z " fill="#0094A9" transform="translate(198,69)"/>
<path d="M0 0 C7.47315139 6.75586231 14.34673615 17.41266371 16.0625 27.45703125 C16.0625 29.76703125 16.0625 32.07703125 16.0625 34.45703125 C7.8125 34.45703125 -0.4375 34.45703125 -8.9375 34.45703125 C-10.2575 30.82703125 -11.5775 27.19703125 -12.9375 23.45703125 C-16.62750295 17.42482152 -21.84929112 12.90270547 -28.421875 10.27734375 C-39.70862319 7.64376917 -52.47441264 7.53746085 -62.5625 13.69921875 C-72.05313343 20.72353625 -77.92341218 30.15619038 -80.46875 41.76171875 C-82.77274337 59.92486648 -81.83675395 79.51915738 -70.30859375 94.5859375 C-63.8769933 101.49505817 -56.24932558 105.26093114 -46.86328125 105.6953125 C-34.80448848 105.98602718 -25.76986427 104.9929972 -16.625 96.3828125 C-12.49775371 91.67278374 -10.89948876 86.34299754 -8.9375 80.45703125 C-0.6875 80.45703125 7.5625 80.45703125 16.0625 80.45703125 C16.0625 92.19101387 10.87813659 101.84950197 3.0625 110.45703125 C2.51851562 111.0809375 1.97453125 111.70484375 1.4140625 112.34765625 C-8.91987306 123.50636601 -23.6201655 128.92901082 -38.546875 129.78515625 C-56.24739738 130.38172207 -71.77220445 126.24869725 -85.1875 114.20703125 C-98.50578513 101.72484317 -106.16348146 84.87622542 -107.07958984 66.62646484 C-107.76504407 43.84642003 -105.94830378 23.67361014 -90.375 5.89453125 C-88.91575209 4.39571052 -87.43849577 2.9140418 -85.9375 1.45703125 C-85.39867187 0.89757812 -84.85984375 0.338125 -84.3046875 -0.23828125 C-61.5302 -22.09721146 -23.15951457 -18.44356503 0 0 Z " fill="#030303" transform="translate(514.9375,97.54296875)"/>
<path d="M0 0 C0.89976562 -0.020625 1.79953125 -0.04125 2.7265625 -0.0625 C14.93209133 -0.13264672 26.07833664 4.19550297 35.1796875 12.38671875 C48.06062389 26.54387695 48.875 41.23210855 48.875 60.25 C24.785 60.25 0.695 60.25 -24.125 60.25 C-20.62156452 74.43461755 -20.62156452 74.43461755 -11.125 84.25 C-3.60252305 88.25168295 4.64115914 88.42364335 12.75 86.0625 C17.48424964 84.27024835 20.58314669 81.49055808 23.125 77.08203125 C24.875 75.25 24.875 75.25 27.6953125 75.0078125 C29.33113281 75.18957031 29.33113281 75.18957031 31 75.375 C32.15113281 75.50003906 33.30226563 75.62507813 34.48828125 75.75390625 C38.69655109 76.37034255 42.75348145 77.2021563 46.875 78.25 C44.52463102 87.71862934 39.90566626 94.45776417 31.875 100.0625 C17.29556002 108.61524105 0.26586974 109.28024303 -15.87109375 105.3515625 C-21.2891053 103.51737372 -25.63947259 100.75855244 -30.125 97.25 C-30.84300781 96.69828125 -31.56101562 96.1465625 -32.30078125 95.578125 C-40.47390397 88.40482118 -46.59797168 76.12897893 -47.94921875 65.3515625 C-49.0067681 46.69169167 -47.96408681 30.82997528 -35.9375 15.453125 C-26.10795117 4.78289108 -14.27204085 0.07973207 0 0 Z " fill="#030303" transform="translate(859.125,119.75)"/>
<path d="M0 0 C9.2258985 7.2652272 13.47854152 15.37312457 17.125 26.3125 C17.63102505 34.97331337 17.97194243 43.33940157 14.125 51.3125 C13.7846875 52.05757812 13.444375 52.80265625 13.09375 53.5703125 C7.63714952 64.44664455 -1.15476819 71.04280558 -12.4375 75.125 C-22.85689262 77.95335307 -34.38677054 77.65377603 -43.875 72.3125 C-44.65359375 71.87679687 -45.4321875 71.44109375 -46.234375 70.9921875 C-54.55125515 65.88484163 -60.05469289 59.23194583 -63.875 50.3125 C-64.39835937 49.23742187 -64.92171875 48.16234375 -65.4609375 47.0546875 C-68.88050778 39.0219032 -67.82473726 27.63601463 -64.91015625 19.54296875 C-58.81216005 6.40351278 -49.04188097 -1.260291 -35.875 -6.6875 C-23.36198407 -9.9435344 -10.56553601 -7.24122235 0 0 Z " fill="#CA9804" transform="translate(155.875,105.6875)"/>
<path d="M0 0 C7.92394148 6.3487001 13.3581239 14.17407486 16 24 C16.30188334 27.10893176 16.324839 30.19073295 16.3125 33.3125 C16.32861328 34.11623047 16.34472656 34.91996094 16.36132812 35.74804688 C16.37033701 46.94608721 11.94685531 55.55845916 4.5 63.75 C-6.09440188 73.28496169 -15.49413396 76.72454635 -29.6875 76.38671875 C-37.91430204 75.88433247 -45.58808838 72.06203549 -52 67 C-52.66 66.01 -53.32 65.02 -54 64 C-53.55269531 63.48953125 -53.10539063 62.9790625 -52.64453125 62.453125 C-44.56605914 52.73828861 -41.00862366 43.39928019 -41.65234375 30.76171875 C-42.56670097 20.8681682 -46.40213463 14.10678816 -52 6 C-52.66 5.01 -53.32 4.02 -54 3 C-37.2180311 -10.71823071 -18.37069096 -11.31247812 0 0 Z " fill="#7B1E8B" transform="translate(232,161)"/>
<path d="M0 0 C7.92 0 15.84 0 24 0 C24 46.2 24 92.4 24 140 C16.08 140 8.16 140 0 140 C0 93.8 0 47.6 0 0 Z " fill="#000000" transform="translate(928,85)"/>
<path d="M0 0 C2.578125 0.020625 5.15625 0.04125 7.8125 0.0625 C7.8125 7.3225 7.8125 14.5825 7.8125 22.0625 C4.863125 22.124375 1.91375 22.18625 -1.125 22.25 C-8.4673723 22.56998999 -14.52589101 22.94612374 -20.1875 28.0625 C-26.29235274 35.39001233 -25.92241206 43.77906894 -25.89453125 52.81640625 C-25.90766733 54.32814 -25.92297737 55.83985628 -25.94035339 57.35154724 C-25.97999402 61.30202606 -25.99038015 65.25204356 -25.99438477 69.20269775 C-26.00375608 73.24529835 -26.04119427 77.28763234 -26.07617188 81.33007812 C-26.14053437 89.24093641 -26.17135037 97.15139624 -26.1875 105.0625 C-34.4375 105.0625 -42.6875 105.0625 -51.1875 105.0625 C-51.1875 70.7425 -51.1875 36.4225 -51.1875 1.0625 C-43.2675 1.0625 -35.3475 1.0625 -27.1875 1.0625 C-26.8575 6.0125 -26.5275 10.9625 -26.1875 16.0625 C-25.383125 14.70125 -24.57875 13.34 -23.75 11.9375 C-17.8431481 3.02096642 -10.39907458 -0.11716975 0 0 Z " fill="#060606" transform="translate(795.1875,119.9375)"/>
<path d="M0 0 C8.95287221 5.8939742 18.02660267 14.18660686 20.4609375 25.05859375 C20.70495008 26.69743497 20.86240132 28.34881579 21 30 C19.9275 30.20625 18.855 30.4125 17.75 30.625 C6.35995717 33.53309604 -2.43507915 39.27695509 -9.0078125 48.95703125 C-14.66770055 58.79882039 -15.08313517 67.8598869 -15 79 C-18.3 79 -21.6 79 -25 79 C-25.02578125 77.97261719 -25.0515625 76.94523437 -25.078125 75.88671875 C-25.55646079 62.66769316 -28.08752437 50.53924565 -38.0703125 41.02734375 C-44.96980216 35.36591582 -52.41782428 32.1911938 -61 30 C-60.83079379 21.20127691 -56.67731805 14.12593726 -50.88671875 7.62890625 C-38.16021547 -4.32903378 -15.66616363 -9.90826394 0 0 Z " fill="#1A77C0" transform="translate(198,69)"/>
<path d="M0 0 C2.495625 0.061875 4.99125 0.12375 7.5625 0.1875 C7.5625 7.4475 7.5625 14.7075 7.5625 22.1875 C-1.4375 22.4375 -1.4375 22.4375 -4.22265625 22.48535156 C-11.0873267 22.76500152 -16.71368692 24.25177736 -21.49609375 29.40625 C-21.95113281 30.1590625 -22.40617188 30.911875 -22.875 31.6875 C-23.34808594 32.4403125 -23.82117188 33.193125 -24.30859375 33.96875 C-26.44005886 38.15792711 -26.57944737 41.93676344 -26.64282227 46.60839844 C-26.66276749 47.90944519 -26.68271271 49.21049194 -26.70326233 50.55096436 C-26.72024418 51.9662667 -26.73712307 53.38157028 -26.75390625 54.796875 C-26.77448755 56.24847999 -26.79548433 57.70007914 -26.81687927 59.15167236 C-26.87197851 62.96562972 -26.92144115 66.77964007 -26.96972656 70.59368896 C-27.02003049 74.48828834 -27.07567007 78.38281109 -27.13085938 82.27734375 C-27.2382923 89.91399933 -27.33927673 97.5507194 -27.4375 105.1875 C-35.3575 105.1875 -43.2775 105.1875 -51.4375 105.1875 C-51.4375 70.8675 -51.4375 36.5475 -51.4375 1.1875 C-43.5175 1.1875 -35.5975 1.1875 -27.4375 1.1875 C-27.1075 6.1375 -26.7775 11.0875 -26.4375 16.1875 C-25.73625 14.970625 -25.035 13.75375 -24.3125 12.5 C-18.52750354 3.30250563 -10.62697871 -0.37616642 0 0 Z " fill="#030303" transform="translate(719.4375,119.8125)"/>
<path d="M0 0 C7.55927784 4.52528197 11.9985161 12.64092729 14.171875 21 C14.50130842 24.37861639 14.55292504 27.73183463 14.546875 31.125 C14.54445801 32.52407593 14.54445801 32.52407593 14.54199219 33.95141602 C14.37134012 43.58071016 12.40998932 52.43864931 6.171875 60 C0.87697524 64.88759978 -3.60416652 66.28917277 -10.765625 66.3125 C-11.95027344 66.32925781 -13.13492188 66.34601563 -14.35546875 66.36328125 C-21.69717704 65.59525102 -25.49249948 61.72574727 -30.0625 56.3359375 C-37.24192679 46.83749232 -36.78490785 33.42403934 -35.828125 22 C-34.02788266 13.21481739 -29.66917614 6.34004447 -22.953125 0.5 C-16.46517156 -2.71501264 -6.68728985 -2.36456658 0 0 Z " fill="#FDFDFD" transform="translate(608.828125,141)"/>
<path d="M0 0 C5.21722105 3.07569281 9.71313694 7.55127387 12.4375 13 C12.58727039 15.24655587 12.65900174 17.49863768 12.6875 19.75 C12.71328125 20.96171875 12.7390625 22.1734375 12.765625 23.421875 C12.24913625 29.05406183 10.05709259 32.94195152 5.875 36.6875 C-0.77383021 42.17157164 -8.33647484 43.615679 -16.82421875 43.3515625 C-24.09892414 42.4175775 -30.57134093 39.34767043 -35.5625 34 C-39.36464115 28.01162769 -40.66188342 22.01565293 -39.5625 15 C-37.71612923 8.84907251 -33.94192672 4.43432327 -28.5625 1 C-19.90993966 -3.36797926 -8.96984775 -4.07220082 0 0 Z " fill="#FBFBFB" transform="translate(1038.5625,165)"/>
<path d="M0 0 C5.43358893 2.86573027 9.01724945 7.73924834 10.9375 13.5 C11.98862621 20.84286735 9.95732272 26.37087469 5.9375 32.5 C0.76060338 37.80963756 -5.21732813 38.81096091 -12.4375 38.9375 C-18.98972768 38.84747921 -23.26329345 38.03878449 -28.0625 33.5 C-33.44318648 27.69452249 -34.52691997 23.28145091 -34.375 15.4765625 C-33.78491713 9.85602318 -31.28098205 6.39205531 -27.0625 2.6875 C-19.35108535 -2.93540652 -8.96140658 -3.45610561 0 0 Z " fill="#FBFBFB" transform="translate(1037.0625,104.5)"/>
<path d="M0 0 C0 6.20494569 -3.67119126 9.62806518 -7.8984375 13.93359375 C-17.91733628 23.14068453 -28.68893979 25.65800719 -42.05859375 25.328125 C-47.17270267 24.90237163 -51.61976321 23.72150767 -56 21 C-56.33 20.34 -56.66 19.68 -57 19 C-50.66701462 8.42103579 -42.5243873 0.8819103 -30.70703125 -3.11328125 C-20.07271261 -5.6570013 -9.83223053 -4.6661433 0 0 Z " fill="#D5B511" transform="translate(168,157)"/>
<path d="M0 0 C6.39436377 2.47342423 9.35240575 9.48013957 12.1171875 15.38671875 C15.74911645 25.5734147 15.40030435 36.64186803 11.375 46.5625 C8.86212648 51.79765317 6.0979147 55.9020853 2 60 C-5.05164232 56.71607509 -8.09089138 49.92129933 -11 43 C-13.82582762 32.57976065 -13.24133718 19.48288172 -8 10 C-5.59064663 6.4543577 -3.0373921 3.0373921 0 0 Z " fill="#568F5B" transform="translate(177,165)"/>
<path d="M0 0 C11.19493961 0.81417743 20.08575327 5.67832738 27.7578125 13.87890625 C34.17290511 21.8574762 37.17739892 31.06755645 37.0625 41.1875 C37.05798828 41.93708984 37.05347656 42.68667969 37.04882812 43.45898438 C37.03706354 45.30602383 37.01912865 47.15302213 37 49 C27.27026722 48.62577951 17.78847433 43.94634583 11 37 C1.31967379 25.24684456 -0.66589467 14.74216814 0 0 Z " fill="#CEB12B" transform="translate(136,99)"/>
<path d="M0 0 C1.72000629 1.72000629 1.25403971 3.89928101 1.3125 6.25 C1.18522652 18.14300008 -2.86656233 28.62759722 -11.10546875 37.1875 C-18.00053905 43.64346944 -26.27857783 49 -36 49 C-36.96232403 34.67206438 -35.96214887 25.20489643 -27.0234375 13.38671875 C-20.57059061 6.19674891 -9.96554436 -0.93011747 0 0 Z " fill="#04ACCF" transform="translate(219,99)"/>
<path d="M0 0 C4.870392 4.05627955 9.05682572 8.34287062 12 14 C12 14.99 12 15.98 12 17 C0.66952884 21.89022262 -11.78605303 23.44976018 -23.5 18.9375 C-31.94973333 14.81680813 -39.24156432 9.24229038 -44 1 C-44.65625 -1.23828125 -44.65625 -1.23828125 -45 -3 C-43.77493102 -3.65357278 -42.54470484 -4.29748233 -41.3125 -4.9375 C-40.62800781 -5.29714844 -39.94351563 -5.65679687 -39.23828125 -6.02734375 C-26.19227045 -11.69655263 -11.40367117 -7.06369133 0 0 Z " fill="#7B3CAD" transform="translate(232,161)"/>
<path d="M0 0 C6.37270734 3.81628539 10.37683127 9.16946319 12.9296875 16.06640625 C13.41015625 18.09375 13.41015625 18.09375 13.41015625 23.09375 C-2.75984375 23.09375 -18.92984375 23.09375 -35.58984375 23.09375 C-33.25228711 12.57474511 -31.12523668 7.41182238 -22.45703125 1.22265625 C-16.46279775 -2.40147237 -6.53440234 -2.28654803 0 0 Z " fill="#FCFCFC" transform="translate(870.58984375,139.90625)"/>
<path d="M0 0 C3.63 0 7.26 0 11 0 C14 7.625 14 7.625 14 11 C12.609375 12.421875 12.609375 12.421875 10.75 13.75 C10.14671875 14.19859375 9.5434375 14.6471875 8.921875 15.109375 C7 16 7 16 4.9375 15.76953125 C2.19571049 14.68055437 0.22030276 12.91192737 -2 11 C-1.39987636 7.31352622 -0.73287817 3.66439084 0 0 Z " fill="#030606" transform="translate(172,148)"/>
</svg>
