<?xml version="1.0" encoding="UTF-8"?>
<svg version="1.1" xmlns="http://www.w3.org/2000/svg" width="1136" height="331">
<path d="M0 0 C374.88 0 749.76 0 1136 0 C1136 109.23 1136 218.46 1136 331 C761.12 331 386.24 331 0 331 C0 221.77 0 112.54 0 0 Z " fill="#000000" transform="translate(0,0)"/>
<path d="M0 0 C9.68227907 6.37416706 18.2555056 14.85902613 20.75 26.5 C20.8325 27.325 20.915 28.15 21 29 C21.59425781 28.96519531 22.18851563 28.93039063 22.80078125 28.89453125 C35.36808843 28.48409042 47.44959165 32.60654883 56.8125 41.1875 C65.93705887 51.05781609 68.69147482 62.38902719 68.375 75.375 C67.78369854 85.66364537 63.15664381 94.69141047 56 102 C50.17647059 107 50.17647059 107 47 107 C47.31831787 107.80920898 47.31831787 107.80920898 47.64306641 108.63476562 C49.75613254 114.39339695 50.4647015 119.39033086 50.375 125.5 C50.38660156 126.29019531 50.39820313 127.08039063 50.41015625 127.89453125 C50.35560764 139.00426432 45.88320824 147.62847094 38.5 155.75 C27.90559812 165.28496169 18.50586604 168.72454635 4.3125 168.38671875 C-3.08898072 167.93473238 -9.46943937 164.86250351 -15.5 160.6875 C-18.04986043 158.6270181 -18.04986043 158.6270181 -22 159 C-24.36756816 160.19752145 -24.36756816 160.19752145 -26.75 161.8125 C-33.84491693 166.44708283 -40.28654982 168.5723685 -48.75 168.5 C-49.5349585 168.49427979 -50.31991699 168.48855957 -51.12866211 168.48266602 C-63.18864988 168.11571423 -72.74780608 162.54991744 -80.96875 153.9375 C-85.56195223 148.48793803 -88.00734202 142.80289148 -90 136 C-90.19335938 135.35804688 -90.38671875 134.71609375 -90.5859375 134.0546875 C-92.37649408 125.16947277 -90.84715295 116.45672215 -88 108 C-88.50789063 107.64808594 -89.01578125 107.29617187 -89.5390625 106.93359375 C-97.22022455 101.42444569 -102.21041464 95.66190939 -106 87 C-106.78697266 85.38544922 -106.78697266 85.38544922 -107.58984375 83.73828125 C-110.72184615 75.43543831 -110.03596858 64.56295693 -107.03515625 56.23046875 C-100.93716005 43.09101278 -91.16688097 35.427209 -78 30 C-74.19045537 28.96530887 -70.62593401 28.89422051 -66.6875 28.9375 C-65.08455078 28.95103516 -65.08455078 28.95103516 -63.44921875 28.96484375 C-62.64097656 28.97644531 -61.83273438 28.98804688 -61 29 C-60.979375 28.0925 -60.95875 27.185 -60.9375 26.25 C-59.60448749 17.24760044 -53.24541342 9.30873021 -46.40625 3.6875 C-33.78161348 -5.1661412 -13.68988185 -8.65833945 0 0 Z " fill="#3C8B3F" transform="translate(214,80)"/>
<path d="M0 0 C0.79057777 -0.00382555 1.58115553 -0.00765109 2.3956902 -0.01159257 C5.02389278 -0.02184605 7.65187375 -0.01794505 10.28009033 -0.01396179 C12.17310792 -0.01831258 14.06612374 -0.02349695 15.95913696 -0.02944946 C21.08742451 -0.04281316 26.21563823 -0.04342091 31.34393978 -0.04088616 C35.63289264 -0.03981438 39.9218307 -0.04470528 44.21078038 -0.04949158 C54.335132 -0.06057831 64.45944652 -0.06102928 74.58380127 -0.05497742 C85.00840142 -0.04894158 95.43286647 -0.06124068 105.85744357 -0.08254749 C114.82418129 -0.10019688 123.79087615 -0.10615947 132.75763059 -0.10290974 C138.10561628 -0.10110161 143.45350565 -0.1036858 148.80147552 -0.11762428 C153.8346872 -0.13025189 158.86768932 -0.12821202 163.90089798 -0.11521339 C165.74063057 -0.11285855 167.58037813 -0.11554283 169.42009354 -0.12383652 C187.23212591 -0.19829956 202.09956477 2.15259917 215.49981689 14.88179016 C227.57602819 27.62773934 229.49596407 41.29796477 229.38482666 58.08320618 C229.38997296 60.06710956 229.39725958 62.05100836 229.4065094 64.03489685 C229.42493967 69.39236606 229.41213822 74.74933418 229.3924191 80.1067822 C229.37596426 85.72970178 229.38485487 91.35259133 229.38993835 96.9755249 C229.39445131 106.41465709 229.37863801 115.8535906 229.35064697 125.29267883 C229.31858955 136.18663925 229.31861713 147.08024163 229.33586174 157.97422749 C229.35175534 168.47998427 229.34497561 178.9856105 229.32792473 189.49136162 C229.32107405 193.95083555 229.32206625 198.41020421 229.32946968 202.86967659 C229.33716163 208.12545546 229.32491153 213.38082949 229.29762077 218.63653946 C229.29076669 220.55892295 229.2906068 222.48134446 229.2978363 224.40372658 C229.33100811 234.37768199 229.2924423 243.11587583 224.75372314 252.26069641 C224.28450439 253.2442511 223.81528564 254.22780579 223.33184814 255.24116516 C216.34983458 266.84362887 206.94391479 274.62828874 193.95684814 278.71772766 C188.54802766 280.05075257 183.30669703 280.40927249 177.75468445 280.40786743 C176.9665211 280.41154412 176.17835775 280.41522081 175.36631066 280.41900891 C172.73429236 280.42999176 170.10231361 280.43388039 167.47027588 280.43769836 C165.5791766 280.44396715 163.68807854 280.45061432 161.79698181 280.45761108 C155.59376882 280.47860645 149.39055572 280.48901 143.18731689 280.49897766 C141.04732818 280.50302706 138.9073396 280.50714404 136.76735115 280.51132774 C126.71066318 280.53037034 116.65398249 280.54460271 106.59727997 280.55293971 C95.00995 280.56270562 83.42281139 280.58901228 71.83554882 280.62944061 C62.8654459 280.65965756 53.89539767 280.67441392 44.92524487 280.67772073 C39.57435386 280.68006501 34.2236675 280.68894445 28.87283134 280.7141819 C23.83386928 280.73756508 18.79524513 280.74165482 13.75624275 280.73142052 C11.9153086 280.73092752 10.07435723 280.73717775 8.23347473 280.75097656 C-9.15296904 280.87392238 -23.38149099 277.83186091 -36.49627686 265.63569641 C-41.45580334 260.45038301 -44.67090541 254.93580246 -47.24627686 248.26069641 C-47.49874491 247.65271902 -47.75121296 247.04474163 -48.01133156 246.41834068 C-51.18629666 237.63468578 -50.66757402 228.62086878 -50.63446045 219.41548157 C-50.63853072 217.51231587 -50.64387515 215.60915255 -50.65039062 213.70599365 C-50.66401765 208.55919061 -50.65878416 203.41256885 -50.64925337 198.26576281 C-50.64163061 192.86484844 -50.64870984 187.46394906 -50.65341187 182.06303406 C-50.65886274 172.99282562 -50.6516963 163.92269057 -50.63739014 154.85249329 C-50.6210748 144.3880816 -50.62634676 133.92384538 -50.64286935 123.45943797 C-50.65651502 114.45443719 -50.65838855 105.44948903 -50.65055335 96.44448125 C-50.64589248 91.07529476 -50.64520794 85.70619054 -50.65516281 80.33700943 C-50.66387476 75.28570217 -50.65773375 70.23461945 -50.64048004 65.18333626 C-50.63653727 63.33715626 -50.63761103 61.49095713 -50.64426804 59.64478493 C-50.69759366 43.34417242 -48.47091822 30.78803096 -39.05877686 17.07319641 C-28.22569747 6.24011702 -15.39418592 -0.08043014 0 0 Z M-20.24627686 22.26069641 C-21.15621446 22.82821656 -21.15621446 22.82821656 -22.08453465 23.40720177 C-27.98656611 27.64529718 -32.00783947 35.47190621 -34.24627686 42.26069641 C-34.43818104 44.93719802 -34.52921014 47.50893236 -34.52043152 50.18417358 C-34.5256682 50.97627163 -34.53090488 51.76836967 -34.53630024 52.58447069 C-34.55128862 55.23579315 -34.55200515 57.8869224 -34.55267334 60.5382843 C-34.56029584 62.44071274 -34.5687235 64.3431381 -34.57789612 66.24555969 C-34.59984471 71.41326585 -34.60864104 76.58091282 -34.61372256 81.74866033 C-34.61736707 84.9802179 -34.62360777 88.21176001 -34.63072395 91.44331169 C-34.65522405 102.72611547 -34.66827063 114.00887326 -34.67181396 125.29170227 C-34.67544503 135.79299963 -34.70530831 146.29400397 -34.74721855 156.79521185 C-34.781973 165.82133799 -34.79736333 174.84736732 -34.79806 183.87355989 C-34.79885134 189.25968148 -34.80752381 194.64550488 -34.83605766 200.03155708 C-34.86232505 205.10340336 -34.86439513 210.17470613 -34.84840202 215.24658966 C-34.84659416 217.10084409 -34.85321792 218.95513038 -34.86922073 220.80931664 C-34.96451503 232.5748966 -34.27018445 242.76990751 -26.99627686 252.63569641 C-15.35296304 263.74976868 -3.50067337 264.7060653 11.82696533 264.64888 C13.65939649 264.65294972 15.49182518 264.65829384 17.32424927 264.66481018 C22.28317033 264.67844586 27.24190339 264.67319959 32.2008276 264.66367292 C37.40508958 264.65605229 42.60933598 264.66312903 47.81359863 264.66783142 C56.55603915 264.67328392 65.29840357 264.66611265 74.04083252 264.65180969 C84.1229167 264.63550462 94.20481865 264.64075817 104.28689837 264.65728891 C112.96408474 264.67094262 121.64121651 264.67280388 130.31841016 264.6649729 C135.49146585 264.66031506 140.66443618 264.65961882 145.83748627 264.66958237 C150.70657413 264.6783057 155.57542937 264.67213292 160.44449234 264.6548996 C162.22252391 264.65096236 164.00057535 264.65202087 165.77859879 264.65868759 C185.83796881 264.8743461 185.83796881 264.8743461 202.75372314 255.26069641 C210.29686349 247.61422537 214.07552667 239.24342742 214.00769043 228.43128967 C214.01081041 227.66142739 214.01393039 226.8915651 214.01714492 226.09837365 C214.02509807 223.52837904 214.01881168 220.95862231 214.01251221 218.3886261 C214.01522335 216.54191958 214.01878498 214.69521414 214.02313232 212.84851074 C214.03224645 207.83799683 214.02871539 202.82756533 214.02237415 197.81704998 C214.0173061 192.56732653 214.02200813 187.31761008 214.02514648 182.06788635 C214.02878506 173.24786617 214.02399121 164.42787948 214.01446533 155.60786438 C214.00359449 145.42527536 214.00709684 135.24276653 214.01811814 125.06017947 C214.02721022 116.30837532 214.0284665 107.55659523 214.0232408 98.80478787 C214.02012993 93.58205684 214.0196872 88.35936341 214.02631378 83.13663483 C214.03211408 78.22168056 214.02804138 73.306829 214.01652527 68.39188576 C214.01389242 66.59324374 214.01462013 64.794593 214.0190506 62.99595451 C214.05165243 48.40953456 213.79146306 37.38417942 203.81622314 26.06147766 C193.75930153 16.06001701 180.8775726 15.66803942 167.50947189 15.703125 C166.18972807 15.70721123 166.18972807 15.70721123 164.84332275 15.71138 C162.96926569 15.70266823 161.09521573 15.69229613 159.22117615 15.68040466 C154.16750098 15.65379663 149.11412649 15.65244741 144.060395 15.65753126 C139.82833566 15.65968148 135.59633584 15.649877 131.36428934 15.64032042 C121.37646025 15.61819166 111.38878164 15.61722184 101.40093994 15.62934875 C91.12206036 15.64143753 80.84372767 15.61676933 70.56494135 15.57420862 C61.71272497 15.53891253 52.86068222 15.52698354 44.00839812 15.5334841 C38.73303132 15.53709844 33.45805518 15.53195115 28.18275261 15.50405502 C23.22230703 15.47880051 18.26271188 15.48287669 13.30227852 15.5088768 C11.4899529 15.51358562 9.67756647 15.50822069 7.86531067 15.49163055 C-2.92580351 15.40002132 -10.92749404 16.14361795 -20.24627686 22.26069641 Z " fill="#FAFAFA" transform="translate(104.24627685546875,25.739303588867188)"/>
<path d="M0 0 C6.90972045 5.06956562 12.63687093 11.53282645 14.83203125 20.0078125 C16.43112846 30.94041585 15.53465811 40.34201568 9.02734375 49.375 C4.9299297 54.33001235 0.45654272 57.74703986 -5.78515625 59.4375 C-6.44515625 59.499375 -7.10515625 59.56125 -7.78515625 59.625 C-7.78515625 60.285 -7.78515625 60.945 -7.78515625 61.625 C-7.00140625 61.66625 -6.21765625 61.7075 -5.41015625 61.75 C3.32742324 63.85907091 10.1059311 69.3556695 15.21484375 76.625 C20.59564454 85.79532818 21.79420098 95.34190695 19.53125 105.77734375 C15.62492256 117.3342378 8.57735357 124.11098086 -2.04296875 129.84375 C-11.45468008 134.29660267 -20.85358598 136.15180633 -31.22265625 136 C-32.23110596 135.98984863 -33.23955566 135.97969727 -34.27856445 135.96923828 C-49.37020547 135.6547021 -62.74998523 131.26753553 -73.87890625 120.703125 C-81.91999217 111.93702313 -83.53112384 102.71530767 -83.22265625 91.1875 C-82.60970082 81.93187304 -77.71271087 74.48797728 -71 68.31640625 C-65.7321474 64.29351352 -60.53393668 61.24141035 -53.78515625 61.625 C-53.78515625 60.965 -53.78515625 60.305 -53.78515625 59.625 C-54.77515625 59.58375 -55.76515625 59.5425 -56.78515625 59.5 C-63.41833103 58.52177422 -68.09527573 53.7796376 -72.09765625 48.6875 C-76.79464006 42.34859062 -78.34832369 36.55338279 -78.28515625 28.8125 C-78.27875122 27.62382324 -78.27875122 27.62382324 -78.2722168 26.41113281 C-78.08231894 19.85932107 -76.63937682 15.00596168 -72.78515625 9.625 C-72.04265625 8.5525 -71.30015625 7.48 -70.53515625 6.375 C-52.09788496 -12.06227129 -21.58110603 -13.99099257 0 0 Z " fill="#FBFBFB" transform="translate(1072.78515625,102.375)"/>
<path d="M0 0 C2.21680743 1.42483218 4.30552574 2.93484729 6.39453125 4.5390625 C7.26078125 5.1165625 8.12703125 5.6940625 9.01953125 6.2890625 C17.7826924 14.59100464 23.66769633 26.8275455 24.5715332 38.90405273 C25.04691309 57.86053604 23.26085804 74.44404751 9.64453125 88.9140625 C5.01162432 93.31637225 0.29520874 96.1589573 -5.60546875 98.5390625 C-6.38277344 98.8896875 -7.16007813 99.2403125 -7.9609375 99.6015625 C-19.08906417 103.54654094 -35.05979775 103.19265267 -45.96484375 98.8671875 C-50.57247116 96.54974176 -54.60934247 93.78896625 -58.60546875 90.5390625 C-59.23066406 90.06210938 -59.85585938 89.58515625 -60.5 89.09375 C-64.86181842 85.33254314 -67.33674664 80.72543125 -69.91796875 75.6640625 C-70.25586426 75.00414307 -70.59375977 74.34422363 -70.94189453 73.66430664 C-77.87474145 59.34051836 -78.0028047 40.76239516 -72.87011719 25.83178711 C-70.64759829 20.03887477 -67.63936349 15.22141213 -63.60546875 10.5390625 C-62.99832031 9.82234375 -62.39117188 9.105625 -61.765625 8.3671875 C-46.67852766 -8.04658711 -19.21425241 -10.7738087 0 0 Z " fill="#FBFBFB" transform="translate(639.60546875,136.4609375)"/>
<path d="M0 0 C9.68227907 6.37416706 18.2555056 14.85902613 20.75 26.5 C20.8325 27.325 20.915 28.15 21 29 C21.59425781 28.96519531 22.18851562 28.93039063 22.80078125 28.89453125 C35.36808843 28.48409042 47.44959165 32.60654883 56.8125 41.1875 C65.93705887 51.05781609 68.69147482 62.38902719 68.375 75.375 C67.79055025 85.54442569 63.2479333 94.88072824 56 102 C53.11411432 104.21849585 50.1500286 106.17855489 47 108 C46.484375 107.34 45.96875 106.68 45.4375 106 C44.633125 105.01 43.82875 104.02 43 103 C42.50242187 102.37222656 42.00484375 101.74445313 41.4921875 101.09765625 C35.07999972 93.32847059 27.13780648 87.8259505 17.3125 85.3125 C8.18780762 84.45167996 0.6550713 84.97386094 -8 88 C-9.32949938 88.34831062 -10.66180796 88.68674141 -12 89 C-15 82.375 -15 82.375 -15 79 C-18.3 79 -21.6 79 -25 79 C-25.02578125 77.97261719 -25.0515625 76.94523437 -25.078125 75.88671875 C-25.55646079 62.66769316 -28.08752437 50.53924565 -38.0703125 41.02734375 C-44.96980216 35.36591582 -52.41782428 32.1911938 -61 30 C-60.83079379 21.20127691 -56.67731805 14.12593726 -50.88671875 7.62890625 C-38.16021547 -4.32903378 -15.66616363 -9.90826394 0 0 Z " fill="#0094A9" transform="translate(214,80)"/>
<path d="M0 0 C10.91126249 8.84544687 16.4684174 20.71994745 20 34 C20 34.99 20 35.98 20 37 C11.42 37 2.84 37 -6 37 C-7.32 33.37 -8.64 29.74 -10 26 C-13.7369631 19.89102247 -18.97236997 15.48966444 -25.60546875 12.80859375 C-36.75915131 10.15173266 -49.30224471 10.67234436 -59.41796875 16.359375 C-70.30929152 24.91856023 -75.10334696 34.52431438 -78 48 C-78.43096237 51.7203687 -78.52507881 55.38182613 -78.5 59.125 C-78.49500488 60.11838379 -78.49000977 61.11176758 -78.48486328 62.13525391 C-78.13955136 76.94556321 -74.12495884 90.28690231 -63.3125 100.8125 C-54.01782518 108.31101815 -43.53096548 109.02803586 -32.02783203 108.22314453 C-23.88646593 107.327261 -17.33415885 103.08736183 -12 97 C-9.11874203 92.5666358 -7.67714299 88.03142896 -6 83 C2.58 83 11.16 83 20 83 C17.37376085 94.81807616 14.06494246 103.9311934 6 113 C5.45085937 113.67675781 4.90171875 114.35351562 4.3359375 115.05078125 C-5.47112925 126.17553758 -21.29963094 131.42249213 -35.69140625 132.34375 C-53.03348031 133.064942 -68.30915963 128.84908052 -81.90234375 117.59765625 C-96.1592069 104.2795166 -103.65950197 86.03908641 -104.3359375 66.6171875 C-104.63403152 44.33056502 -102.23539615 25.38857848 -87 8 C-86.42894531 7.32324219 -85.85789062 6.64648438 -85.26953125 5.94921875 C-63.7142036 -17.7202775 -24.99301598 -17.89485 0 0 Z " fill="#FBFBFB" transform="translate(528,106)"/>
<path d="M0 0 C0.89976562 -0.020625 1.79953125 -0.04125 2.7265625 -0.0625 C15.50981899 -0.13596699 26.6326661 4.6132788 36.02734375 13.2421875 C48.57908217 26.88192016 48.875 42.33624829 48.875 60.25 C24.785 60.25 0.695 60.25 -24.125 60.25 C-20.62156452 74.43461755 -20.62156452 74.43461755 -11.125 84.25 C-3.60252305 88.25168295 4.64115914 88.42364335 12.75 86.0625 C18.29003554 83.96144895 21.373507 80.53342244 23.875 75.25 C26.58412781 75.36464015 29.29179661 75.49137154 32 75.625 C32.76054688 75.6559375 33.52109375 75.686875 34.3046875 75.71875 C38.82132158 75.952369 42.61652347 76.57654117 46.875 78.25 C45.51776981 86.39338116 41.47936751 92.49660057 35.125 97.68359375 C31.27476842 100.36405011 27.1679717 102.3801412 22.875 104.25 C22.09511719 104.60449219 21.31523438 104.95898438 20.51171875 105.32421875 C9.11249609 109.32661249 -7.44882075 108.98929292 -18.58984375 104.5078125 C-33.53896585 97.09083666 -41.80719213 85.71902101 -47.0625 70.125 C-51.02684328 53.47968288 -48.34075198 35.72642182 -39.87109375 21.05859375 C-33.59430687 10.96237503 -23.74294594 4.0407391 -12.2890625 0.71728516 C-8.24264813 -0.15645549 -4.1242572 0.02304054 0 0 Z " fill="#FBFBFB" transform="translate(875.125,130.75)"/>
<path d="M0 0 C9.2258985 7.2652272 13.47854152 15.37312457 17.125 26.3125 C17.63102505 34.97331337 17.97194243 43.33940157 14.125 51.3125 C13.7846875 52.05757812 13.444375 52.80265625 13.09375 53.5703125 C7.63714952 64.44664455 -1.15476819 71.04280558 -12.4375 75.125 C-22.85689262 77.95335307 -34.38677054 77.65377603 -43.875 72.3125 C-44.65359375 71.87679687 -45.4321875 71.44109375 -46.234375 70.9921875 C-54.55125515 65.88484163 -60.05469289 59.23194583 -63.875 50.3125 C-64.39835937 49.23742187 -64.92171875 48.16234375 -65.4609375 47.0546875 C-68.88050778 39.0219032 -67.82473726 27.63601463 -64.91015625 19.54296875 C-58.81216005 6.40351278 -49.04188097 -1.260291 -35.875 -6.6875 C-23.36198407 -9.9435344 -10.56553601 -7.24122235 0 0 Z " fill="#CA9804" transform="translate(171.875,116.6875)"/>
<path d="M0 0 C7.92394148 6.3487001 13.3581239 14.17407486 16 24 C16.30188334 27.10893176 16.324839 30.19073295 16.3125 33.3125 C16.32861328 34.11623047 16.34472656 34.91996094 16.36132812 35.74804688 C16.37033701 46.94608721 11.94685531 55.55845916 4.5 63.75 C-6.09440188 73.28496169 -15.49413396 76.72454635 -29.6875 76.38671875 C-37.91430204 75.88433247 -45.58808838 72.06203549 -52 67 C-52.66 66.01 -53.32 65.02 -54 64 C-53.55269531 63.48953125 -53.10539063 62.9790625 -52.64453125 62.453125 C-44.56605914 52.73828861 -41.00862366 43.39928019 -41.65234375 30.76171875 C-42.56670097 20.8681682 -46.40213463 14.10678816 -52 6 C-52.66 5.01 -53.32 4.02 -54 3 C-37.2180311 -10.71823071 -18.37069096 -11.31247812 0 0 Z " fill="#7B1E8B" transform="translate(248,172)"/>
<path d="M0 0 C7.92 0 15.84 0 24 0 C24 46.2 24 92.4 24 140 C16.08 140 8.16 140 0 140 C0 93.8 0 47.6 0 0 Z " fill="#FFFFFF" transform="translate(944,96)"/>
<path d="M0 0 C2.578125 0.020625 5.15625 0.04125 7.8125 0.0625 C7.8125 7.3225 7.8125 14.5825 7.8125 22.0625 C-1.1875 22.25 -1.1875 22.25 -3.97265625 22.27026367 C-10.1834176 22.50263457 -14.34603654 24.15626982 -19.1875 28.0625 C-23.90454576 33.15194411 -25.42935088 36.82907938 -25.50634766 43.75878906 C-25.51639328 44.42261597 -25.5264389 45.08644287 -25.53678894 45.77038574 C-25.56758633 47.95629033 -25.5846461 50.14207263 -25.6015625 52.328125 C-25.62027696 53.84699554 -25.63985059 55.36585572 -25.6602478 56.88470459 C-25.71154579 60.87619919 -25.75118388 64.86772749 -25.78839111 68.859375 C-25.82844546 72.93498047 -25.87953126 77.01044604 -25.9296875 81.0859375 C-26.02641922 89.07803643 -26.10981281 97.07019323 -26.1875 105.0625 C-34.4375 105.0625 -42.6875 105.0625 -51.1875 105.0625 C-51.1875 70.7425 -51.1875 36.4225 -51.1875 1.0625 C-43.2675 1.0625 -35.3475 1.0625 -27.1875 1.0625 C-26.8575 6.0125 -26.5275 10.9625 -26.1875 16.0625 C-25.383125 14.70125 -24.57875 13.34 -23.75 11.9375 C-17.8431481 3.02096642 -10.39907458 -0.11716975 0 0 Z " fill="#F9F9F9" transform="translate(811.1875,130.9375)"/>
<path d="M0 0 C2.495625 0.061875 4.99125 0.12375 7.5625 0.1875 C7.5625 7.4475 7.5625 14.7075 7.5625 22.1875 C-1.5625 22.5 -1.5625 22.5 -4.40283203 22.57543945 C-10.84089467 22.85723325 -15.09263621 24.22435822 -20.125 28.4375 C-24.50667454 33.64813999 -25.80643613 38.42094223 -25.86987305 45.13256836 C-25.8800647 45.78707977 -25.89025635 46.44159119 -25.90075684 47.11593628 C-25.93065808 49.25316175 -25.9401169 51.38993744 -25.94921875 53.52734375 C-25.96608254 55.01951052 -25.98423506 56.51166324 -26.00361633 58.00379944 C-26.05093835 61.91142381 -26.08086226 65.81899115 -26.10705566 69.72680664 C-26.13695157 73.72228247 -26.18345065 77.71756219 -26.22851562 81.71289062 C-26.31434611 89.53767947 -26.38024424 97.36244033 -26.4375 105.1875 C-34.6875 105.1875 -42.9375 105.1875 -51.4375 105.1875 C-51.4375 70.8675 -51.4375 36.5475 -51.4375 1.1875 C-43.5175 1.1875 -35.5975 1.1875 -27.4375 1.1875 C-27.1075 6.1375 -26.7775 11.0875 -26.4375 16.1875 C-25.73625 14.970625 -25.035 13.75375 -24.3125 12.5 C-18.52750354 3.30250563 -10.62697871 -0.37616642 0 0 Z " fill="#F9F9F9" transform="translate(735.4375,130.8125)"/>
<path d="M0 0 C8.95287221 5.8939742 18.02660267 14.18660686 20.4609375 25.05859375 C20.70495008 26.69743497 20.86240132 28.34881579 21 30 C19.9275 30.20625 18.855 30.4125 17.75 30.625 C6.35995717 33.53309604 -2.43507915 39.27695509 -9.0078125 48.95703125 C-14.66770055 58.79882039 -15.08313517 67.8598869 -15 79 C-18.3 79 -21.6 79 -25 79 C-25.02578125 77.97261719 -25.0515625 76.94523437 -25.078125 75.88671875 C-25.55646079 62.66769316 -28.08752437 50.53924565 -38.0703125 41.02734375 C-44.96980216 35.36591582 -52.41782428 32.1911938 -61 30 C-60.83079379 21.20127691 -56.67731805 14.12593726 -50.88671875 7.62890625 C-38.16021547 -4.32903378 -15.66616363 -9.90826394 0 0 Z " fill="#1A77C0" transform="translate(214,80)"/>
<path d="M0 0 C6.2078277 4.87840464 10.0352897 12.06842193 12 19.625 C13.27331616 32.68392655 13.27543189 46.50613827 4.6875 57.125 C-1.03308103 62.89365314 -4.8679266 64.8496282 -13 65.125 C-21.226795 64.8464207 -25.0421955 62.85801772 -30.75 56.9375 C-34.15688708 52.8431245 -35.79850822 48.77293018 -37 43.625 C-37.18175781 42.88894531 -37.36351562 42.15289062 -37.55078125 41.39453125 C-39.58823633 28.83317775 -38.65873 16.52263101 -31.625 5.6875 C-24.52408448 -3.42352084 -9.97007553 -6.02960275 0 0 Z " fill="#020202" transform="translate(627,153.375)"/>
<path d="M0 0 C5.49909919 3.25115662 10.3920067 7.86352011 12.4375 14 C13.34442834 25.96848052 13.34442834 25.96848052 10.875 31.5 C4.24181762 38.30326398 -0.88228552 42.19811269 -10.72924805 42.3293457 C-11.82233276 42.32100708 -11.82233276 42.32100708 -12.9375 42.3125 C-13.69264893 42.30758545 -14.44779785 42.3026709 -15.22583008 42.29760742 C-22.29851517 42.1482654 -26.78866939 40.81365848 -32.8125 36.875 C-37.4967157 31.97786541 -39.73452955 26.78574316 -40.125 20 C-39.81570027 13.57454753 -37.2958428 8.57353042 -32.625 4.17578125 C-23.4711008 -2.98437097 -10.79722697 -4.93350217 0 0 Z " fill="#020202" transform="translate(1054.5625,176)"/>
<path d="M0 0 C3.72169961 2.61565234 6.20953188 5.10961238 7.9453125 9.3671875 C9.01501013 16.48192055 8.96665445 23.54398387 5.14453125 29.8203125 C1.75873778 34.18765521 -1.84079221 35.88739838 -7.0546875 37.3671875 C-14.15253206 38.04526942 -21.85957883 38.36084525 -28.0546875 34.3671875 C-33.29801772 29.82766 -35.51685044 25.09006914 -36.3046875 18.171875 C-36.60755607 12.58773569 -35.58328301 8.73436897 -32.0546875 4.3671875 C-24.00263087 -4.15985 -10.24031269 -5.47913409 0 0 Z " fill="#020202" transform="translate(1055.0546875,116.6328125)"/>
<path d="M0 0 C0 6.20494569 -3.67119126 9.62806518 -7.8984375 13.93359375 C-17.91733628 23.14068453 -28.68893979 25.65800719 -42.05859375 25.328125 C-47.17270267 24.90237163 -51.61976321 23.72150767 -56 21 C-56.33 20.34 -56.66 19.68 -57 19 C-50.66701462 8.42103579 -42.5243873 0.8819103 -30.70703125 -3.11328125 C-20.07271261 -5.6570013 -9.83223053 -4.6661433 0 0 Z " fill="#D5B511" transform="translate(184,168)"/>
<path d="M0 0 C6.39436377 2.47342423 9.35240575 9.48013957 12.1171875 15.38671875 C15.74911645 25.5734147 15.40030435 36.64186803 11.375 46.5625 C8.86212648 51.79765317 6.0979147 55.9020853 2 60 C-5.05164232 56.71607509 -8.09089138 49.92129933 -11 43 C-13.82582762 32.57976065 -13.24133718 19.48288172 -8 10 C-5.59064663 6.4543577 -3.0373921 3.0373921 0 0 Z " fill="#568F5B" transform="translate(193,176)"/>
<path d="M0 0 C11.19493961 0.81417743 20.08575327 5.67832738 27.7578125 13.87890625 C34.17290511 21.8574762 37.17739892 31.06755645 37.0625 41.1875 C37.05798828 41.93708984 37.05347656 42.68667969 37.04882812 43.45898438 C37.03706354 45.30602383 37.01912865 47.15302213 37 49 C27.27026722 48.62577951 17.78847433 43.94634583 11 37 C1.31967379 25.24684456 -0.66589467 14.74216814 0 0 Z " fill="#CEB12B" transform="translate(152,110)"/>
<path d="M0 0 C1.72000629 1.72000629 1.25403971 3.89928101 1.3125 6.25 C1.18522652 18.14300008 -2.86656233 28.62759722 -11.10546875 37.1875 C-18.00053905 43.64346944 -26.27857783 49 -36 49 C-36.96232403 34.67206438 -35.96214887 25.20489643 -27.0234375 13.38671875 C-20.57059061 6.19674891 -9.96554436 -0.93011747 0 0 Z " fill="#04ACCF" transform="translate(235,110)"/>
<path d="M0 0 C4.870392 4.05627955 9.05682572 8.34287062 12 14 C12 14.99 12 15.98 12 17 C0.66952884 21.89022262 -11.78605303 23.44976018 -23.5 18.9375 C-31.94973333 14.81680813 -39.24156432 9.24229038 -44 1 C-44.65625 -1.23828125 -44.65625 -1.23828125 -45 -3 C-43.77493102 -3.65357278 -42.54470484 -4.29748233 -41.3125 -4.9375 C-40.62800781 -5.29714844 -39.94351563 -5.65679687 -39.23828125 -6.02734375 C-26.19227045 -11.69655263 -11.40367117 -7.06369133 0 0 Z " fill="#7B3CAD" transform="translate(248,172)"/>
<path d="M0 0 C5.344062 4.06483463 8.67143453 8.98888849 10.74609375 15.328125 C10.74609375 17.308125 10.74609375 19.288125 10.74609375 21.328125 C-5.09390625 21.328125 -20.93390625 21.328125 -37.25390625 21.328125 C-36.27559813 12.52335194 -35.61074688 8.37690619 -29.3203125 2.53125 C-21.25005398 -3.87613862 -9.14808826 -5.40136604 0 0 Z " fill="#020202" transform="translate(889.25390625,152.671875)"/>
<path d="M0 0 C3.63 0 7.26 0 11 0 C14 7.625 14 7.625 14 11 C12.609375 12.421875 12.609375 12.421875 10.75 13.75 C10.14671875 14.19859375 9.5434375 14.6471875 8.921875 15.109375 C7 16 7 16 4.9375 15.76953125 C2.19571049 14.68055437 0.22030276 12.91192737 -2 11 C-1.39987636 7.31352622 -0.73287817 3.66439084 0 0 Z " fill="#030606" transform="translate(188,159)"/>
</svg>
